<svg xmlns="http://www.w3.org/2000/svg" width="1600" height="940" viewBox="0 0 1600 940" font-family="Arial, Helvetica, 'DejaVu Sans', sans-serif">
<title>Plate B09-P2 — sorting diagram</title>
<rect x="0" y="0" width="1600" height="940" fill="#fafaf9"/>
<text x="24.0" y="45.9" font-size="26" fill="#1e1e20" text-anchor="start" font-weight="bold">Plate B09-P2</text>
<text x="24.0" y="68.9" font-size="14" fill="#6e6e73" text-anchor="start">2 parts  ·  4.9 h  ·  67 g  ·  Galaxy Black ASA  ·  bed 250 × 220 mm  ·  PrusaSlicer 2.9.6 estimate</text>
<rect x="24.0" y="90.0" width="900.0" height="792.0" fill="#e9e9e6" stroke="#96968f" stroke-width="1.5"/>
<line x1="204.0" y1="90.0" x2="204.0" y2="882.0" stroke="#d5d5d1" stroke-width="1.0"/>
<line x1="384.0" y1="90.0" x2="384.0" y2="882.0" stroke="#d5d5d1" stroke-width="1.0"/>
<line x1="564.0" y1="90.0" x2="564.0" y2="882.0" stroke="#d5d5d1" stroke-width="1.0"/>
<line x1="744.0" y1="90.0" x2="744.0" y2="882.0" stroke="#d5d5d1" stroke-width="1.0"/>
<line x1="24.0" y1="702.0" x2="924.0" y2="702.0" stroke="#d5d5d1" stroke-width="1.0"/>
<line x1="24.0" y1="522.0" x2="924.0" y2="522.0" stroke="#d5d5d1" stroke-width="1.0"/>
<line x1="24.0" y1="342.0" x2="924.0" y2="342.0" stroke="#d5d5d1" stroke-width="1.0"/>
<line x1="24.0" y1="162.0" x2="924.0" y2="162.0" stroke="#d5d5d1" stroke-width="1.0"/>
<text x="30.0" y="876.1" font-size="11" fill="#6e6e73" text-anchor="start">front-left (0,0)</text>
<text x="918.0" y="104.1" font-size="11" fill="#6e6e73" text-anchor="end">rear</text>
<path d="M540.0,502.5 664.5,502.0 665.5,503.0 694.5,503.0 695.5,504.0 734.5,505.0 735.5,506.0 741.5,506.0 742.5,507.0 767.5,507.0 768.5,508.0 793.5,509.0 794.5,510.0 810.5,511.0 812.5,513.0 816.5,513.0 817.5,514.0 822.5,514.0 824.5,515.0 828.0,518.5 837.0,536.5 837.0,538.5 844.0,551.5 844.0,553.5 847.0,558.5 847.0,762.5 845.5,764.0 791.5,764.0 790.5,765.0 783.5,765.0 782.5,766.0 778.5,766.0 777.5,767.0 773.5,767.0 769.5,769.0 766.5,769.0 758.5,773.0 756.5,773.0 755.5,774.0 753.5,774.0 747.5,777.0 744.5,777.0 740.5,779.0 732.5,780.0 731.5,781.0 725.5,781.0 724.5,782.0 715.5,782.0 714.5,783.0 679.5,783.0 678.5,782.0 669.5,782.0 668.5,781.0 662.5,781.0 661.5,780.0 658.5,780.0 657.5,779.0 653.5,779.0 649.5,777.0 646.5,777.0 643.5,775.0 638.5,774.0 635.5,772.0 630.5,771.0 624.5,768.0 621.5,768.0 620.5,767.0 617.5,767.0 616.5,766.0 610.5,766.0 609.5,765.0 602.5,765.0 601.5,764.0 599.5,765.0 592.5,765.0 591.5,766.0 586.5,766.0 585.5,767.0 578.5,768.0 577.5,769.0 569.5,771.0 566.5,773.0 561.5,774.0 558.5,776.0 552.5,777.0 551.5,778.0 545.5,779.0 544.5,780.0 533.5,781.0 532.5,782.0 523.5,782.0 522.5,783.0 487.5,783.0 486.5,782.0 477.5,782.0 476.5,781.0 470.5,781.0 469.5,780.0 466.5,780.0 465.5,779.0 461.5,779.0 458.5,777.0 454.5,777.0 451.5,775.0 446.5,774.0 443.5,772.0 441.5,772.0 435.5,769.0 432.5,769.0 429.5,767.0 424.5,767.0 423.5,766.0 419.5,766.0 418.5,765.0 411.5,765.0 410.5,764.0 356.5,764.0 356.0,556.5 360.0,549.5 360.0,547.5 367.0,534.5 367.0,532.5 374.0,518.5 379.5,514.0 391.5,513.0 392.5,511.0 409.5,510.0 410.5,509.0 426.5,509.0 427.5,508.0 436.5,508.0 437.5,507.0 455.5,507.0 456.5,506.0 466.5,506.0 467.5,505.0 485.5,505.0 486.5,504.0 507.5,504.0 508.5,503.0Z" fill-rule="evenodd" fill="#b6cdc8" stroke="#7a7a80" stroke-width="0.8" stroke-linejoin="round" stroke-dasharray="4 3"><title>brim 3 mm — Regular_Cartridge(contributed_by_Bucknova).3mf</title></path>
<path d="M168.0,189.5 336.5,189.0 340.5,191.0 346.0,197.5 346.0,774.5 340.5,781.0 336.5,783.0 168.5,783.0 164.5,781.0 159.0,774.5 158.5,761.0 112.5,761.0 107.5,758.0 104.0,754.5 102.0,750.5 102.0,747.5 101.0,746.5 101.0,680.5 102.0,679.5 102.0,676.5 104.0,672.5 107.5,669.0 112.5,666.0 159.0,665.5 159.0,306.5 112.5,306.0 107.5,303.0 104.0,299.5 102.0,295.5 102.0,292.5 101.0,291.5 101.0,225.5 102.0,224.5 102.0,221.5 104.0,217.5 107.5,214.0 112.5,211.0 158.5,211.0 159.0,197.5 164.5,191.0Z" fill-rule="evenodd" fill="#b6cdc8" stroke="#7a7a80" stroke-width="0.8" stroke-linejoin="round" stroke-dasharray="4 3"><title>brim 3 mm — exhaust_cover.stl</title></path>
<path d="M551.0,513.5 555.5,513.0 557.5,515.0 561.5,515.0 562.5,513.0 582.5,513.0 584.5,515.0 589.5,515.0 591.5,513.0 620.5,513.0 622.5,515.0 623.5,515.0 625.5,513.0 653.5,513.0 654.5,514.0 658.5,514.0 659.5,515.0 661.5,515.0 662.5,514.0 683.5,514.0 684.5,515.0 692.5,515.0 693.5,517.0 699.5,517.0 700.5,515.0 705.5,515.0 706.5,516.0 723.5,516.0 724.5,517.0 730.5,517.0 732.5,519.0 744.5,519.0 745.5,520.0 748.5,520.0 750.5,518.0 756.5,518.0 757.5,519.0 769.5,519.0 770.5,520.0 782.5,520.0 783.5,521.0 799.5,522.0 801.5,524.0 805.5,524.0 806.5,525.0 811.5,525.0 813.5,526.0 817.0,529.5 826.0,547.5 826.0,549.5 833.0,562.5 833.0,564.5 836.0,569.5 836.0,751.5 834.5,753.0 780.5,753.0 779.5,754.0 772.5,754.0 771.5,755.0 767.5,755.0 766.5,756.0 762.5,756.0 758.5,758.0 755.5,758.0 747.5,762.0 745.5,762.0 744.5,763.0 742.5,763.0 736.5,766.0 733.5,766.0 729.5,768.0 721.5,769.0 720.5,770.0 714.5,770.0 713.5,771.0 704.5,771.0 703.5,772.0 690.5,772.0 689.5,771.0 680.5,771.0 679.5,770.0 673.5,770.0 672.5,769.0 669.5,769.0 668.5,768.0 664.5,768.0 660.5,766.0 657.5,766.0 654.5,764.0 649.5,763.0 646.5,761.0 641.5,760.0 635.5,757.0 632.5,757.0 631.5,756.0 628.5,756.0 627.5,755.0 621.5,755.0 620.5,754.0 613.5,754.0 612.5,753.0 589.5,753.0 588.5,754.0 575.5,755.0 574.5,756.0 571.5,756.0 570.5,757.0 567.5,757.0 566.5,758.0 558.5,760.0 555.5,762.0 553.5,762.0 547.5,765.0 541.5,766.0 537.5,768.0 529.5,769.0 528.5,770.0 522.5,770.0 521.5,771.0 512.5,771.0 511.5,772.0 498.5,772.0 497.5,771.0 488.5,771.0 487.5,770.0 481.5,770.0 480.5,769.0 477.5,769.0 476.5,768.0 472.5,768.0 469.5,766.0 465.5,766.0 462.5,764.0 457.5,763.0 454.5,761.0 452.5,761.0 446.5,758.0 443.5,758.0 440.5,756.0 435.5,756.0 434.5,755.0 430.5,755.0 429.5,754.0 422.5,754.0 421.5,753.0 367.5,753.0 367.0,567.5 371.0,560.5 371.0,558.5 378.0,545.5 378.0,543.5 385.0,529.5 390.5,525.0 402.5,524.0 403.5,522.0 420.5,521.0 421.5,520.0 433.5,520.0 434.5,521.0 437.5,521.0 438.5,519.0 447.5,519.0 448.5,518.0 458.5,518.0 459.5,519.0 465.5,519.0 467.5,517.0 477.5,517.0 478.5,516.0 496.5,516.0 498.5,515.0 500.5,517.0 506.5,517.0 507.5,515.0 518.5,515.0 519.5,514.0Z" fill-rule="evenodd" fill="#00695c" stroke="#003a33" stroke-width="1.0" stroke-linejoin="round"><title>#2 Regular_Cartridge(contributed_by_Bucknova).3mf → 11-nevermore</title></path>
<path d="M179.0,200.5 325.5,200.0 329.5,202.0 335.0,208.5 335.0,763.5 329.5,770.0 325.5,772.0 179.5,772.0 175.5,770.0 170.0,763.5 169.5,750.0 123.5,750.0 118.5,747.0 115.0,743.5 113.0,739.5 113.0,736.5 112.0,735.5 112.0,691.5 113.0,690.5 113.0,687.5 115.0,683.5 118.5,680.0 123.5,677.0 170.0,676.5 170.0,295.5 123.5,295.0 118.5,292.0 115.0,288.5 113.0,284.5 113.0,281.5 112.0,280.5 112.0,236.5 113.0,235.5 113.0,232.5 115.0,228.5 118.5,225.0 123.5,222.0 169.5,222.0 170.0,208.5 175.5,202.0Z M239.5,231.0 237.5,232.0 235.0,235.5 235.0,238.5 237.0,242.5 236.0,243.5 238.5,245.0 244.5,245.0 247.0,243.5 247.0,241.5 248.0,240.5 248.0,234.5 247.0,232.5 244.5,231.0Z M145.5,249.0 143.5,250.0 140.0,254.5 140.0,262.5 141.0,264.5 145.5,268.0 152.5,268.0 158.0,261.5 158.0,255.5 156.0,251.5 152.5,249.0Z M239.5,471.0 238.5,472.0 235.5,472.0 229.0,477.5 227.0,481.5 227.0,490.5 229.0,494.5 235.5,500.0 237.5,500.0 238.5,501.0 244.5,501.0 251.5,498.0 254.0,495.5 254.0,494.5 256.0,492.5 256.0,489.5 257.0,488.5 257.0,483.5 256.0,482.5 256.0,479.5 250.5,473.0 248.5,473.0 244.5,471.0Z M145.5,704.0 143.5,705.0 140.0,709.5 140.0,717.5 141.0,719.5 145.5,723.0 152.5,723.0 156.0,720.5 158.0,716.5 158.0,710.5 152.5,704.0Z M238.5,727.0 236.0,728.5 237.0,729.5 235.0,733.5 235.0,736.5 236.0,738.5 239.5,741.0 244.5,741.0 246.5,740.0 248.0,737.5 248.0,731.5 247.0,730.5 247.0,728.5 244.5,727.0Z" fill-rule="evenodd" fill="#00695c" stroke="#003a33" stroke-width="1.0" stroke-linejoin="round"><title>#1 exhaust_cover.stl → 11-nevermore</title></path>
<text x="598.5" y="637.6" font-size="17" fill="#ffffff" text-anchor="middle" font-weight="bold">2</text>
<text x="598.5" y="648.0" font-size="12" fill="#ffffff" text-anchor="middle">11-nevermore</text>
<rect x="237.0" y="442.0" width="31.0" height="87.0" rx="3.0" fill="#ffffff"/>
<text x="246.0" y="491.6" font-size="17" fill="#1e1e20" text-anchor="middle" font-weight="bold" transform="rotate(-90 246.0 485.5)">1</text>
<text x="259.5" y="489.8" font-size="12" fill="#1e1e20" text-anchor="middle" transform="rotate(-90 259.5 485.5)">11-nevermore</text>
<text x="950.0" y="40.0" font-size="13" fill="#6e6e73" text-anchor="start" font-weight="bold">Bins on this plate</text>
<rect x="950.0" y="48.0" width="95.0" height="18.0" rx="4.0" fill="#00695c"/>
<text x="997.5" y="61.3" font-size="12" fill="#ffffff" text-anchor="middle" font-weight="bold">11-nevermore</text>
<text x="950.0" y="102.0" font-size="13" fill="#1e1e20" text-anchor="start" font-weight="bold">Parts on this plate  —  # · STL · bin (chapter · steps)</text>
<rect x="950.0" y="116.0" width="12.0" height="12.0" rx="2.0" fill="#00695c"/>
<text x="968.0" y="125.0" font-size="12" fill="#6e6e73" text-anchor="start" font-weight="bold">1</text>
<text x="983.0" y="126.0" font-size="13" fill="#1e1e20" text-anchor="start" font-weight="bold">exhaust_cover.stl</text>
<text x="983.0" y="140.1" font-size="11" fill="#6e6e73" text-anchor="start">11-nevermore · Nevermore plenum + cartridge, exhaust cover + grill · Ch 11 · 11.26–11.40, 11.54</text>
<rect x="950.0" y="152.0" width="12.0" height="12.0" rx="2.0" fill="#00695c"/>
<text x="968.0" y="161.0" font-size="12" fill="#6e6e73" text-anchor="start" font-weight="bold">2</text>
<text x="983.0" y="162.0" font-size="13" fill="#1e1e20" text-anchor="start" font-weight="bold">Regular_Cartridge(contributed_by_Bucknova).3mf</text>
<text x="983.0" y="176.1" font-size="11" fill="#6e6e73" text-anchor="start">11-nevermore · Nevermore plenum + cartridge, exhaust cover + grill · Ch 11 · 11.26–11.40, 11.54</text>
<text x="24.0" y="900.1" font-size="11" fill="#6e6e73" text-anchor="start">brim (dashed ring) is set per object in the project: 3 mm on 2 part(s)</text>
<text x="24.0" y="915.1" font-size="11" fill="#6e6e73" text-anchor="start">outlines from slicer/plates/B09-P2.3mf (the committed project) · scripts/render_plate_bins.py · bins: slicer/bins.py</text>
</svg>
